squats_2_grf
version=1
nRows=30
nColumns=19
inDegrees=no
endheader
time	ground_force_left_vx	ground_force_left_vy	ground_force_left_vz	ground_force_left_px	ground_force_left_py	ground_force_left_pz	ground_force_left_mx	ground_force_left_my	ground_force_left_mz	ground_force_right_vx	ground_force_right_vy	ground_force_right_vz	ground_force_right_px	ground_force_right_py	ground_force_right_pz	ground_force_right_mx	ground_force_right_my	ground_force_right_mz
      0.91000000	     -1.92857497	    280.05703572	     19.02196656	     -2.29261769	      0.01021476	      2.31772153	      0.00033788	     -0.17232244	      0.00043091	     -0.86703679	    242.63387968	    -18.42601320	     -2.29678644	      0.01049759	      2.68487881	     -0.00212295	      1.72013046	      0.00513997
      0.91100000	     -2.36313887	    278.98151320	     18.96854048	     -2.29242674	      0.01021513	      2.31771924	      0.00030694	     -0.15654596	      0.00039146	     -1.08709609	    242.10629347	    -18.35730260	     -2.29669030	      0.01049774	      2.68486707	     -0.00212318	      1.72032230	      0.00514055
      0.91200000	     -2.80226449	    277.85888456	     18.91133756	     -2.29223007	      0.01021551	      2.31771657	      0.00027543	     -0.14047269	      0.00035127	     -1.30917826	    241.55878231	    -18.28804593	     -2.29659122	      0.01049790	      2.68485467	     -0.00212326	      1.72038191	      0.00514072
      0.91300000	     -3.24362825	    276.69124331	     18.85046284	     -2.29202836	      0.01021590	      2.31771346	      0.00024346	     -0.12417095	      0.00031050	     -1.53191129	    240.99292306	    -18.21866508	     -2.29648957	      0.01049807	      2.68484172	     -0.00212316	      1.72030328	      0.00514049
      0.91400000	     -3.68490138	    275.48085813	     18.78606092	     -2.29182228	      0.01021629	      2.31770980	      0.00021119	     -0.10770967	      0.00026934	     -1.75389185	    240.41039019	    -18.14958655	     -2.29638570	      0.01049824	      2.68482835	     -0.00212289	      1.72008211	      0.00513983
      0.91500000	     -4.12378134	    274.23014962	     18.71831703	     -2.29161251	      0.01021670	      2.31770553	      0.00017873	     -0.09115760	      0.00022795	     -1.97370114	    239.81293580	    -18.08123623	     -2.29628002	      0.01049841	      2.68481469	     -0.00212244	      1.71971595	      0.00513874
      0.91600000	     -4.55802292	    272.94166794	     18.64745773	     -2.29139976	      0.01021710	      2.31770053	      0.00014623	     -0.07458246	      0.00018650	     -2.18992084	    239.20236891	    -18.01403435	     -2.29617292	      0.01049858	      2.68480087	     -0.00212180	      1.71920428	      0.00513721
      0.91700000	     -4.98546833	    271.61807133	     18.57375120	     -2.29118470	      0.01021751	      2.31769472	      0.00011382	     -0.05805021	      0.00014516	     -2.40114909	    238.58053417	    -17.94839057	     -2.29606481	      0.01049876	      2.68478706	     -0.00212099	      1.71854870	      0.00513525
      0.91800000	     -5.40407565	    270.26210632	     18.49750698	     -2.29096800	      0.01021792	      2.31768799	      0.00008161	     -0.04162431	      0.00010409	     -2.60601637	    237.94929041	    -17.88469944	     -2.29595611	      0.01049893	      2.68477340	     -0.00212001	      1.71775295	      0.00513287
      0.91900000	     -5.81194542	    268.87658941	     18.41907523	     -2.29075031	      0.01021832	      2.31768023	      0.00004973	     -0.02536508	      0.00006343	     -2.80320080	    237.31048923	    -17.82333628	     -2.29584723	      0.01049910	      2.68476007	     -0.00211886	      1.71682306	      0.00513009
      0.92000000	     -6.20734467	    267.46439082	     18.33884545	     -2.29053223	      0.01021873	      2.31767135	      0.00001829	     -0.00932917	      0.00002333	     -2.99144293	    236.66595403	    -17.76465348	     -2.29573861	      0.01049928	      2.68474722	     -0.00211756	      1.71576728	      0.00512694
      0.92100000	     -6.58872818	    266.02842006	     18.25724455	     -2.29031436	      0.01021913	      2.31766123	     -0.00001261	      0.00643097	     -0.00001608	     -3.16955967	    236.01745984	    -17.70897742	     -2.29563064	      0.01049945	      2.68473501	     -0.00211612	      1.71459620	      0.00512344
      0.92200000	     -6.95475651	    264.57161338	     18.17473436	     -2.29009721	      0.01021953	      2.31764979	     -0.00004288	      0.02186746	     -0.00005468	     -3.33645727	    235.36671409	    -17.65660588	     -2.29552372	      0.01049961	      2.68472362	     -0.00211454	      1.71332268	      0.00511963
      0.92300000	     -7.30431056	    263.09692308	     18.09180852	     -2.28988128	      0.01021992	      2.31763691	     -0.00007242	      0.03693736	     -0.00009237	     -3.49114319	    234.71533886	    -17.60780608	     -2.29541826	      0.01049977	      2.68471319	     -0.00211287	      1.71196181	      0.00511556
      0.92400000	     -7.63650255	    261.60730831	     18.00898867	     -2.28966700	      0.01022030	      2.31762250	     -0.00010118	      0.05160287	     -0.00012904	     -3.63273681	    234.06485470	    -17.56281335	     -2.29531460	      0.01049993	      2.68470388	     -0.00211110	      1.71053085	      0.00511129
      0.92500000	     -7.95068301	    260.10572736	     17.92682015	     -2.28945475	      0.01022068	      2.31760649	     -0.00012908	      0.06583149	     -0.00016462	     -3.76047878	    233.41666633	    -17.52183031	     -2.29521310	      0.01050008	      2.68469583	     -0.00210927	      1.70904913	      0.00510686
      0.92600000	     -8.24644394	    258.59513096	     17.84586699	     -2.28924486	      0.01022105	      2.31758878	     -0.00015607	      0.07959608	     -0.00019904	     -3.87373916	    232.77205040	    -17.48502666	     -2.29511408	      0.01050022	      2.68468919	     -0.00210741	      1.70753786	      0.00510235
      0.92700000	     -8.52361792	    257.07845652	     17.76670650	     -2.28903760	      0.01022140	      2.31756931	     -0.00018210	      0.09287484	     -0.00023224	     -3.97202408	    232.13214548	    -17.45253942	     -2.29501783	      0.01050036	      2.68468407	     -0.00210553	      1.70602002	      0.00509781
      0.92800000	     -8.78227332	    255.55862298	     17.68992318	     -2.28883318	      0.01022175	      2.31754801	     -0.00020715	      0.10565115	     -0.00026419	     -4.05498119	    231.49794435	    -17.42447366	     -2.29492461	      0.01050048	      2.68468060	     -0.00210368	      1.70452012	      0.00509333
      0.92900000	     -9.02270562	    254.03852586	     17.61610239	     -2.28863176	      0.01022209	      2.31752483	     -0.00023119	      0.11791341	     -0.00029486	     -4.12240358	    230.87028868	    -17.40090369	     -2.29483465	      0.01050060	      2.68467887	     -0.00210188	      1.70306395	      0.00508898
      0.93000000	     -9.24542510	    252.52103236	     17.54582351	     -2.28843345	      0.01022241	      2.31749973	     -0.00025422	      0.12965477	     -0.00032422	     -4.17423248	    230.24986619	    -17.38187453	     -2.29474812	      0.01050070	      2.68467896	     -0.00210017	      1.70167837	      0.00508484
      0.93100000	     -9.45114108	    251.00897627	     17.47965289	     -2.28823832	      0.01022273	      2.31747268	     -0.00027621	      0.14087276	     -0.00035227	     -4.21055853	    229.63721017	    -17.36740382	     -2.29466519	      0.01050080	      2.68468097	     -0.00209858	      1.70039099	      0.00508099
      0.93200000	     -9.64074304	    249.50515222	     17.41813658	     -2.28804639	      0.01022303	      2.31744367	     -0.00029718	      0.15156897	     -0.00037902	     -4.23162158	    229.03270148	    -17.35748387	     -2.29458595	      0.01050089	      2.68468493	     -0.00209715	      1.69922988	      0.00507752
      0.93300000	     -9.81527891	    248.01230939	     17.36179309	     -2.28785763	      0.01022333	      2.31741267	     -0.00031714	      0.16174859	     -0.00040447	     -4.23780928	    228.43657271	    -17.35208399	     -2.29451046	      0.01050096	      2.68469091	     -0.00209591	      1.69822321	      0.00507451
      0.93400000	     -9.97593102	    246.53314425	     17.31110601	     -2.28767200	      0.01022361	      2.31737970	     -0.00033611	      0.17141999	     -0.00042866	     -4.22965424	    227.84891468	    -17.35115283	     -2.29443873	      0.01050103	      2.68469892	     -0.00209489	      1.69739894	      0.00507205
      0.93500000	    -10.12399005	    245.07029231	     17.26651697	     -2.28748942	      0.01022388	      2.31734477	     -0.00035409	      0.18059426	     -0.00045160	     -4.20782987	    227.26968487	    -17.35462088	     -2.29437074	      0.01050108	      2.68470899	     -0.00209413	      1.69678437	      0.00507021
      0.93600000	    -10.26082755	    243.62631873	     17.22841873	     -2.28730978	      0.01022414	      2.31730791	     -0.00037113	      0.18928470	     -0.00047333	     -4.17314498	    226.69871777	    -17.36240287	     -2.29430640	      0.01050112	      2.68472110	     -0.00209367	      1.69640583	      0.00506908
      0.93700000	    -10.38786742	    242.20370771	     17.19714878	     -2.28713296	      0.01022439	      2.31726916	     -0.00038725	      0.19750639	     -0.00049389	     -4.12653715	    226.13573691	    -17.37440014	     -2.29424560	      0.01050116	      2.68473526	     -0.00209352	      1.69628821	      0.00506873
      0.93800000	    -10.50655696	    240.80485063	     17.17298341	     -2.28695884	      0.01022463	      2.31722857	     -0.00040249	      0.20527564	     -0.00051332	     -4.06906485	    225.58036826	    -17.39050285	     -2.29418816	      0.01050118	      2.68475141	     -0.00209373	      1.69645464	      0.00506923
      0.93900000	    -10.61833794	    239.43203305	     17.15613250	     -2.28678728	      0.01022486	      2.31718620	     -0.00041687	      0.21260952	     -0.00053166	     -4.00189851	    225.03215485	    -17.41059197	     -2.29413387	      0.01050119	      2.68476953	     -0.00209431	      1.69692604	      0.00507064
